/* XPM */
static const char * ankh32x32_xpm[] = {
"32 32 34 1",
" 	c None",
".	c #BCBCBC",
"+	c #989898",
"@	c #747474",
"#	c #B8B8B8",
"$	c #FCFCFC",
"%	c #DCDCDC",
"&	c #AAAAAA",
"*	c #CACACA",
"=	c #ECECEC",
"-	c #CCCCCC",
";	c #BABABA",
">	c #DADADA",
",	c #7B7B7B",
"'	c #3A3A3A",
")	c #868686",
"!	c #575757",
"~	c #969696",
"{	c #5E5E5E",
"]	c #000000",
"^	c #4C4C4C",
"/	c #696969",
"(	c #2F2F2F",
"_	c #1D1D1D",
":	c #797979",
"<	c #7E7E7E",
"[	c #9D9D9D",
"}	c #8D8D8D",
"|	c #ADADAD",
"1	c #5C5C5C",
"2	c #9B9B9B",
"3	c #6E6E6E",
"4	c #BDBDBD",
"5	c #A8A8A8",
"..........+@#$$$$$$$$$$$%.......",
"..........+@#$$$$$$$$$$$%.......",
"........&+++*$$$$$$$$$$$=%-.....",
"........+@+.%$$$$$$$$$$$$$%.....",
"......&+++&.;###########>$=%-...",
"......+@+...+@@@@@@@@@@@#$$$%...",
"......,',.&+)@!'''''''!@~#>$%...",
"......{]{.+@@@']]]]]]]'@@@#$%...",
"......{]^+)@@@/{{{{{(]'@@@#$%...",
"......{]'@@@@@+.....{]'@@@#$%...",
"......{]_'!@@@+.....{]'@@@:<[...",
"......{]]]'@@@+.....{]'@@@']{...",
"......}{(]_'!@)+&.}{^'!@!'^{}...",
"........{]]]'@@@+.{]'@@@']{.....",
"++,{[%%%|<<<1'!@)+/'!@~#2<|%%%%%",
"@@']<$$$$$$$<]'@@@@@@@#$$$$$$$$$",
"++^]3%=$$$$$4<2#~@@@~#>$$$$$$$$$",
"..{]{.%$$$$$$$$$#@@@#$$$$$$$$$$$",
"..{]^+5#########~@@@~#########>$",
"..{]'@@@@@@@@@@@@@@@@@@@@@@@@@#$",
"..{]_'''''''''''!@@@!'''''''''2$",
"..{]]]]]]]]]]]]]'@@@']]]]]]]]]<$",
"..}{{{{{{{{{(]]]'@@@/{{{{{{{{{[%",
"............{]]]'@@@+...........",
"....}{{{{{{{(]]]'@@@+...........",
"....{]]]]]]]]]]]'@@@+...........",
"{{{{(]]]]]]]]]]]'@@@+...........",
"]]]]]]]]]]]]]]]]'@@@+...........",
"{{(]]]]]]]]]]]]]_''',...........",
"..{]]]]]]]]]]]]]]]]]{...........",
"..}{{{{{{{{{{{{{{{{{}...........",
"................................"};
