/* XPM */
static char * icon16x16_xpm[] = {
"16 16 5 1",
" 	c None",
"!	c #BCBCBC",
"#	c #747474",
"$	c #FCFCFC",
"%	c black",
"!!!!!#$$$$$$!!!!",
"!!!!#!$$$$$$$!!!",
"!!!#!!######$$!!",
"!!!%!##%%%%##$!!",
"!!!%###!!!%##$!!",
"!!!%%##!!!%##%!!",
"!!!!%%##!%##%!!!",
"#%$$$$%####$$$$$",
"!%!$$$$$##$$$$$$",
"!%#############$",
"!%%%%%%%##%%%%%$",
"!!!!!!%%##!!!!!!",
"!!%%%%%%##!!!!!!",
"%%%%%%%%##!!!!!!",
"!%%%%%%%%%!!!!!!",
"!!!!!!!!!!!!!!!!"};


